<svg xmlns="http://www.w3.org/2000/svg" viewBox="0 0 180 40" width="180" height="40" aria-label="SmileStone">
  <!-- Tooth icon -->
  <g transform="translate(0, 2)">
    <!-- Outer tooth shape -->
    <path d="M18 2 C12 2, 6 6, 6 13 C6 18, 8 22, 9 27 C10 32, 11 36, 14 36 C16 36, 17 33, 18 29 C19 33, 20 36, 22 36 C25 36, 26 32, 27 27 C28 22, 30 18, 30 13 C30 6, 24 2, 18 2 Z" fill="#00BAEF"/>
    <!-- Inner highlight -->
    <path d="M18 5 C14 5, 10 8, 10 13 C10 17, 11.5 21, 12.5 25 C13 27, 13.5 30, 15 30 C16 30, 16.5 28, 17 26 C17.5 24, 17.8 22, 18 22 C18.2 22, 18.5 24, 19 26 C19.5 28, 20 30, 21 30 C22.5 30, 23 27, 23.5 25 C24.5 21, 26 17, 26 13 C26 8, 22 5, 18 5 Z" fill="#0078A8" opacity="0.6"/>
    <!-- Root bumps at top -->
    <ellipse cx="13" cy="4" rx="3" ry="2.5" fill="#00BAEF"/>
    <ellipse cx="23" cy="4" rx="3" ry="2.5" fill="#0078A8"/>
  </g>
  <!-- Wordmark -->
  <text x="38" y="27" font-family="Inter, system-ui, sans-serif" font-weight="800" font-size="20" letter-spacing="-0.5">
    <tspan fill="#1A2B4A">Smile</tspan><tspan fill="#00BAEF">Stone</tspan>
  </text>
</svg>
